<svg width="84" height="84" viewBox="409.886 0 84 84" fill="none" xmlns="http://www.w3.org/2000/svg">
<path d="M451.878 84.0003C430.993 84.0003 414.062 67.0698 414.062 46.1849L489.693 46.1849C489.693 67.0697 472.762 84.0002 451.878 84.0003Z" fill="black"/>
<path d="M413.022 37.7814C413.169 31.1478 414.879 24.9738 418.153 19.2599C421.581 13.2767 426.288 8.5713 432.271 5.14272C438.254 1.7142 444.775 -0.00076133 451.833 -0.000835006C458.825 -0.000834395 465.347 1.67991 471.397 5.04116C477.447 8.46978 482.187 13.1427 485.616 19.0587C488.923 24.8305 490.635 31.0713 490.751 37.7814L481.773 37.7814C481.584 29.7422 478.663 22.8961 473.01 17.2433C467.161 11.3947 460.17 8.46987 452.036 8.46987C443.632 8.46987 436.54 11.3278 430.758 17.0421C425.078 22.592 422.156 29.5048 421.993 37.7814L413.022 37.7814Z" fill="url(#paint0_linear_132_97)"/>
<defs>
<linearGradient id="paint0_linear_132_97" x1="490.751" y1="18.8903" x2="413.022" y2="18.8903" gradientUnits="userSpaceOnUse">
<stop stop-color="#6200FF"/>
<stop offset="1" stop-color="#006CE0"/>
</linearGradient>
</defs>
</svg>
