<svg width="585" height="84" viewBox="0 0 585 84" fill="none" xmlns="http://www.w3.org/2000/svg">
<g clip-path="url(#clip0_132_97)">

<path d="M584.761 82.1846H582.139L535.349 28.6377V82.1846H526.475V8.36852H529.096L576.189 62.6213V8.36852H584.761V82.1846Z" fill="black"></path>
<path d="M376.859 8.36852L346.607 73.7139H374.943V82.1846H333.195L363.75 16.7384H336.926V8.36852H376.859Z" fill="black"></path>
<path d="M295.648 82.1846H286.976V8.36852H295.648V82.1846Z" fill="black"></path>
<path d="M251.547 82.1846H240.656L214.639 48.5035H211.613V82.1846H202.941V8.36852H218.067C226.135 8.36852 231.681 8.73828 234.706 9.47779C237.731 10.1501 240.353 11.3266 242.572 13.0072C244.79 14.6879 246.538 16.8728 247.816 19.5619C249.093 22.1838 249.732 25.1082 249.732 28.3352C249.732 34.4529 247.648 39.3605 243.479 43.0581C239.311 46.6884 233.294 48.5035 225.429 48.5035L251.547 82.1846ZM211.613 40.0328H223.412C229.328 40.1 233.698 39.2261 236.521 37.4109C239.345 35.5285 240.757 32.5705 240.757 28.5369C240.757 24.436 239.378 21.4779 236.622 19.6628C233.866 17.7804 229.563 16.8392 223.714 16.8392H211.613V40.0328Z" fill="black"></path>
<path d="M127.915 6.5535C135.108 6.5535 141.73 8.26781 147.78 11.6964C153.831 15.0578 158.57 19.7301 161.999 25.7134C165.495 31.6967 167.243 38.2178 167.243 45.2767C167.243 52.2684 165.529 58.7559 162.1 64.7391C158.671 70.7224 153.965 75.4284 147.982 78.857C141.999 82.2856 135.478 83.9999 128.419 83.9999C121.427 83.9999 114.906 82.3192 108.856 78.9578C102.805 75.5292 98.0655 70.8569 94.6368 64.9408C91.2082 58.9576 89.4939 52.4701 89.4939 45.4784C89.4939 38.4195 91.2082 31.8984 94.6368 25.9151C98.0655 19.8646 102.738 15.125 108.654 11.6964C114.637 8.26781 121.057 6.5535 127.915 6.5535ZM128.217 75.5292C136.621 75.5292 143.713 72.672 149.495 66.9577C155.344 61.2433 158.268 54.0835 158.268 45.4784C158.268 36.8732 155.31 29.6462 149.394 23.7974C143.545 17.9486 136.486 15.0242 128.217 15.0242C119.746 15.0242 112.654 17.9822 106.94 23.8983C101.292 29.7471 98.4688 36.9068 98.4688 45.3775C98.4688 53.781 101.393 60.9072 107.242 66.756C113.091 72.6048 120.083 75.5292 128.217 75.5292Z" fill="black"></path>
<path d="M52.841 82.1846H44.1686V47.1926H8.77323V82.1846H0V8.36852H8.77323V38.7219H44.1686V8.36852H52.841V82.1846Z" fill="black"></path>
<path d="M451.878 84.0003C430.993 84.0003 414.062 67.0698 414.062 46.1849L489.693 46.1849C489.693 67.0697 472.762 84.0002 451.878 84.0003Z" fill="black"></path>
<path d="M413.022 37.7814C413.169 31.1478 414.879 24.9738 418.153 19.2599C421.581 13.2767 426.288 8.5713 432.271 5.14272C438.254 1.7142 444.775 -0.00076133 451.833 -0.000835006C458.825 -0.000834395 465.347 1.67991 471.397 5.04116C477.447 8.46978 482.187 13.1427 485.616 19.0587C488.923 24.8305 490.635 31.0713 490.751 37.7814L481.773 37.7814C481.584 29.7422 478.663 22.8961 473.01 17.2433C467.161 11.3947 460.17 8.46987 452.036 8.46987C443.632 8.46987 436.54 11.3278 430.758 17.0421C425.078 22.592 422.156 29.5048 421.993 37.7814L413.022 37.7814Z" fill="url(#paint0_linear_132_97)"></path>
</g>
<defs>
<linearGradient id="paint0_linear_132_97" x1="490.751" y1="18.8903" x2="413.022" y2="18.8903" gradientUnits="userSpaceOnUse">
<stop stop-color="#6200FF"></stop>
<stop offset="1" stop-color="#006CE0"></stop>
</linearGradient>
<clipPath id="clip0_132_97">
<rect width="585" height="84" fill="white"></rect>
</clipPath>
</defs>
</svg>