<svg xmlns="http://www.w3.org/2000/svg" width="203.08" height="57.14" viewBox="97.0 30.063 203.0 56.938" role="img" aria-label="StayMark logo"><title>StayMark</title><g transform="translate(106.544,78.000) scale(0.019000,-0.019000)"><path d="M662 -30Q507 -30 382.5 23.5Q258 77 177.5 176.5Q97 276 73 413L291 446Q324 314 429.0 240.5Q534 167 674 167Q761 167 834.0 194.5Q907 222 951.5 273.5Q996 325 996 397Q996 436 982.5 466.0Q969 496 945.5 518.5Q922 541 888.5 557.5Q855 574 815 586L446 695Q392 711 336.0 736.5Q280 762 233.5 803.5Q187 845 158.0 906.5Q129 968 129 1056Q129 1189 197.5 1281.5Q266 1374 383.0 1421.5Q500 1469 645 1469Q791 1467 906.5 1417.0Q1022 1367 1098.5 1273.5Q1175 1180 1204 1047L980 1009Q965 1090 916.0 1148.5Q867 1207 796.0 1238.5Q725 1270 642 1271Q562 1273 495.5 1247.0Q429 1221 389.5 1174.0Q350 1127 350 1066Q350 1006 385.0 969.0Q420 932 471.5 910.5Q523 889 574 875L840 800Q890 786 953.5 762.5Q1017 739 1076.5 697.0Q1136 655 1175.0 585.5Q1214 516 1214 411Q1214 302 1170.0 219.5Q1126 137 1049.5 81.5Q973 26 873.0 -2.0Q773 -30 662 -30Z" fill="#14201E"></path></g><g transform="translate(130.497,78.000) scale(0.019000,-0.019000)"><path d="M758 0Q656 -20 558.0 -17.0Q460 -14 383.0 21.0Q306 56 267 131Q232 198 229.5 267.5Q227 337 227 425V1380H437V435Q437 370 438.5 322.0Q440 274 459 241Q495 179 573.5 170.5Q652 162 758 177ZM20 912V1080H758V912Z" fill="#14201E"></path></g><g transform="translate(146.052,78.000) scale(0.019000,-0.019000)"><path d="M445 -30Q325 -30 244.0 14.5Q163 59 121.5 132.5Q80 206 80 294Q80 376 109.0 438.0Q138 500 195.0 543.5Q252 587 335 614Q407 635 498.0 651.0Q589 667 689.5 681.0Q790 695 889 709L813 667Q815 794 759.5 855.5Q704 917 569 917Q484 917 413.0 877.5Q342 838 314 747L119 807Q159 946 271.5 1028.0Q384 1110 571 1110Q716 1110 823.5 1060.5Q931 1011 981 904Q1007 851 1013.0 792.0Q1019 733 1019 665V0H834V247L870 215Q803 91 699.5 30.5Q596 -30 445 -30ZM482 141Q571 141 635.0 172.5Q699 204 738.0 253.0Q777 302 789 355Q806 403 808.5 463.0Q811 523 811 559L879 534Q780 519 699.0 507.0Q618 495 552.5 483.5Q487 472 436 456Q393 441 359.5 420.0Q326 399 306.5 369.0Q287 339 287 296Q287 254 308.0 218.5Q329 183 372.0 162.0Q415 141 482 141Z" fill="#14201E"></path></g><g transform="translate(166.053,78.000) scale(0.019000,-0.019000)"><path d="M286 -480 495 89 498 -79 27 1080H245L597 185H533L869 1080H1081L485 -480Z" fill="#14201E"></path></g><g transform="translate(186.397,78.000) scale(0.019000,-0.019000)"><path d="M140 0V1440H329L851 357L1370 1440H1561V1H1363V986L898 0H803L337 986V0Z" fill="#14201E"></path></g><g transform="translate(218.215,78.000) scale(0.019000,-0.019000)"><path d="M445 -30Q325 -30 244.0 14.5Q163 59 121.5 132.5Q80 206 80 294Q80 376 109.0 438.0Q138 500 195.0 543.5Q252 587 335 614Q407 635 498.0 651.0Q589 667 689.5 681.0Q790 695 889 709L813 667Q815 794 759.5 855.5Q704 917 569 917Q484 917 413.0 877.5Q342 838 314 747L119 807Q159 946 271.5 1028.0Q384 1110 571 1110Q716 1110 823.5 1060.5Q931 1011 981 904Q1007 851 1013.0 792.0Q1019 733 1019 665V0H834V247L870 215Q803 91 699.5 30.5Q596 -30 445 -30ZM482 141Q571 141 635.0 172.5Q699 204 738.0 253.0Q777 302 789 355Q806 403 808.5 463.0Q811 523 811 559L879 534Q780 519 699.0 507.0Q618 495 552.5 483.5Q487 472 436 456Q393 441 359.5 420.0Q326 399 306.5 369.0Q287 339 287 296Q287 254 308.0 218.5Q329 183 372.0 162.0Q415 141 482 141Z" fill="#14201E"></path></g><g transform="translate(239.356,78.000) scale(0.019000,-0.019000)"><path d="M140 0V1080H326V818L300 852Q320 904 352.0 947.5Q384 991 426 1019Q467 1049 517.5 1065.5Q568 1082 621.0 1085.5Q674 1089 723 1080V884Q670 898 605.5 892.0Q541 886 487 851Q436 818 406.5 771.0Q377 724 364.0 666.5Q351 609 351 545V0Z" fill="#14201E"></path></g><g transform="translate(253.543,78.000) scale(0.019000,-0.019000)"><path d="M139 0 140 1440H352V560L776 1080H1042L594 540L1088 0H804L352 520V0Z" fill="#14201E"></path></g><path d="M98.5 56 Q190.0 14 293.5 44" fill="none" stroke="#0E8C6E" stroke-width="3" stroke-linecap="round"></path><circle cx="295.5" cy="44" r="4.5" fill="#0E8C6E"></circle></svg>